<svg width="20" height="20" viewBox="0 0 20 20" fill="none" xmlns="http://www.w3.org/2000/svg">
<path fill-rule="evenodd" clip-rule="evenodd" d="M4.16667 1.66663C3.24619 1.66663 2.5 2.41282 2.5 3.33329V17.5C2.5 17.7733 2.63403 18.0292 2.85867 18.1849C3.08332 18.3406 3.37002 18.3762 3.62594 18.2802L10 15.89L16.3741 18.2802C16.63 18.3762 16.9167 18.3406 17.1413 18.1849C17.366 18.0292 17.5 17.7733 17.5 17.5V3.33329C17.5 2.41282 16.7538 1.66663 15.8333 1.66663H4.16667ZM12.1193 11.4002C13.3956 10.2406 14.1667 9.01638 14.1667 7.76805C14.1667 5.19134 11.1176 4.66554 10.082 6.52249C10.0474 6.58456 9.95265 6.58456 9.91803 6.52249C8.88242 4.66554 5.83333 5.19134 5.83333 7.76805C5.83333 9.01638 6.60445 10.2406 7.88072 11.4002C8.32139 11.8006 8.79273 12.1648 9.26408 12.4864C9.42913 12.599 9.58252 12.6983 9.72043 12.7835C9.80379 12.835 9.86391 12.8706 9.89694 12.8894C9.96083 12.9257 10.0392 12.9257 10.1031 12.8894C10.1361 12.8706 10.1962 12.835 10.2796 12.7835C10.4175 12.6983 10.5709 12.599 10.7359 12.4864C11.2073 12.1648 11.6786 11.8006 12.1193 11.4002Z" fill="black"/>
</svg>
